<svg xmlns="http://www.w3.org/2000/svg" width="100" height="100" viewBox="0 0 100 100">
  <rect x="2" y="2" width="96" height="96" rx="22" fill="#d32f2f"/>
  <rect x="9" y="9" width="82" height="82" rx="16" fill="none" stroke="#000" opacity="0.75" stroke-width="2.5"/>
  <g transform="translate(50,50) scale(2.6) translate(-12,-12)">
    <path fill="#000" opacity="0.75" d="M23 13v-2h-3.07a8 8 0 0 0-1.62-3.9l2.19-2.17l-1.43-1.43l-2.17 2.19A8 8 0 0 0 13 4.07V1h-2v3.07c-1.42.18-2.77.74-3.9 1.62L4.93 3.5L3.5 4.93L5.69 7.1A8 8 0 0 0 4.07 11H1v2h3.07c.18 1.42.74 2.77 1.62 3.9L3.5 19.07l1.43 1.43l2.17-2.19c1.13.88 2.48 1.44 3.9 1.62V23h2v-3.07c1.42-.18 2.77-.74 3.9-1.62l2.17 2.19l1.43-1.43l-2.19-2.17a8 8 0 0 0 1.62-3.9zM12 8a4 4 0 0 0-4 4H6a6 6 0 0 1 6-6z"/>
  </g>
</svg>